# xmcd
#
# Track frame offsets: 
#        150
#        19382
#        36038
#        57460
#        83642
#        104955
#        123342
#        142493
#        165068
#        186805
#        209885
#        229219
#        243372
#        266373
#        287970
#        303151
#        324369
#
# Disc length: 4584 seconds
#
# Revision: 3
# Processed by: cddbd v1.5.2PL0 Copyright (c) Steve Scherf et al.
# Submitted via: ExactAudioCopyFreeDBPlugin 1.0
#
DISCID=fc11e611
DTITLE=平井 堅 - 裏 歌バカ Disc2
DYEAR=2010
DGENRE=R&B
TTITLE0=ex-girlfriend
TTITLE1=PAUL
TTITLE2=somebody's girl
TTITLE3=まばたき
TTITLE4=signal
TTITLE5=jealousy
TTITLE6=ため息キップ
TTITLE7=hug
TTITLE8=Kiss
TTITLE9=美しい人
TTITLE10=Cry and Smile!!
TTITLE11=フルサ・サイーダ
TTITLE12=Do it!!
TTITLE13=一人じゃない
TTITLE14=Catch you
TTITLE15=太陽
TTITLE16=HOTEL VAMPIRE
EXTD=YEAR: 2010
EXTT0=
EXTT1=
EXTT2=
EXTT3=
EXTT4=
EXTT5=
EXTT6=
EXTT7=
EXTT8=
EXTT9=
EXTT10=
EXTT11=
EXTT12=
EXTT13=
EXTT14=
EXTT15=
EXTT16=
PLAYORDER=
